<?xml version="1.0" encoding="UTF-8"?>
<svg xmlns="http://www.w3.org/2000/svg" xmlns:xlink="http://www.w3.org/1999/xlink" width="227px" height="30px" viewBox="0 0 223 30" version="1.1">
<g id="surface1">
<path style=" stroke:none;fill-rule:nonzero;fill:rgb(8.627451%,8.235294%,8.627451%);fill-opacity:1;" d="M 77.296875 3.03125 C 80.484375 5.054688 82.175781 7.496094 83.113281 11.164062 C 83.707031 15.128906 82.757812 18.820312 81.316406 22.5 C 81.8125 22.996094 82.304688 23.488281 82.8125 24 C 82.484375 24.824219 82.15625 25.648438 81.816406 26.5 C 79.820312 26.5 79.820312 26.5 78.855469 25.71875 C 77.875 24.855469 77.875 24.855469 76.695312 25.195312 C 76.019531 25.347656 76.019531 25.347656 75.332031 25.5 C 71.613281 25.8125 68.421875 25.808594 65.351562 23.5 C 62.503906 20.644531 61.296875 18.03125 61.144531 14.0625 C 61.25 10.628906 61.953125 8.003906 64.328125 5.460938 C 67.90625 2.207031 72.613281 1.3125 77.296875 3.03125 Z M 68.347656 8 C 66.722656 9.898438 66.359375 12.050781 66.351562 14.5 C 66.542969 16.742188 67.03125 18.425781 68.691406 20 C 70.585938 21.148438 71.660156 21.21875 73.835938 21 C 73.339844 20.339844 72.847656 19.679688 72.335938 19 C 72.832031 18.339844 73.324219 17.679688 73.835938 17 C 74.132812 17.164062 74.429688 17.328125 74.738281 17.5 C 75.855469 18.105469 75.855469 18.105469 77.328125 18 C 78.367188 15.910156 78.046875 13.273438 77.824219 11 C 77.160156 9.339844 76.089844 8.257812 74.832031 7 C 72.238281 6.214844 70.679688 6.675781 68.347656 8 Z M 68.347656 8 "/>
<path style=" stroke:none;fill-rule:nonzero;fill:rgb(8.627451%,8.627451%,8.627451%);fill-opacity:1;" d="M 9.683594 2.953125 C 10.230469 2.953125 10.230469 2.953125 10.789062 2.953125 C 11.953125 2.957031 13.117188 2.960938 14.28125 2.96875 C 15.070312 2.972656 15.859375 2.972656 16.644531 2.976562 C 18.582031 2.980469 20.515625 2.988281 22.449219 3 C 22.449219 4.320312 22.449219 5.640625 22.449219 7 C 18.664062 7 14.875 7 10.976562 7 C 10.976562 8.484375 10.976562 9.96875 10.976562 11.5 C 14.433594 11.5 17.890625 11.5 21.453125 11.5 C 21.453125 12.820312 21.453125 14.140625 21.453125 15.5 C 17.996094 15.5 14.539062 15.5 10.976562 15.5 C 10.976562 17.148438 10.976562 18.800781 10.976562 20.5 C 14.925781 20.5 18.878906 20.5 22.949219 20.5 C 22.949219 21.984375 22.949219 23.46875 22.949219 25 C 17.351562 25 11.753906 25 5.988281 25 C 5.988281 18.070312 5.988281 11.140625 5.988281 4 C 5.65625 3.835938 5.328125 3.671875 4.988281 3.5 C 6.492188 2.746094 8.039062 2.9375 9.683594 2.953125 Z M 9.683594 2.953125 "/>
<path style=" stroke:none;fill-rule:nonzero;fill:rgb(8.627451%,8.627451%,9.019608%);fill-opacity:1;" d="M 148.167969 3 C 153.929688 3 159.691406 3 165.628906 3 C 166.433594 4.613281 166.027344 5.773438 165.628906 7.5 C 164.835938 8.644531 164.097656 9.585938 163.164062 10.59375 C 162.667969 11.15625 162.171875 11.714844 161.675781 12.277344 C 161.296875 12.703125 161.296875 12.703125 160.90625 13.132812 C 159.671875 14.53125 158.488281 15.96875 157.304688 17.40625 C 156.59375 18.261719 155.882812 19.117188 155.152344 20 C 158.773438 20.164062 162.394531 20.328125 166.128906 20.5 C 166.128906 21.984375 166.128906 23.46875 166.128906 25 C 159.871094 25 153.617188 25 147.171875 25 C 147.171875 21.117188 147.257812 20.328125 149.664062 17.8125 C 150.167969 17.253906 150.671875 16.691406 151.175781 16.132812 C 151.425781 15.855469 151.679688 15.582031 151.9375 15.300781 C 152.976562 14.148438 153.941406 12.9375 154.902344 11.71875 C 155.207031 11.335938 155.507812 10.953125 155.824219 10.5625 C 156.609375 9.550781 157.378906 8.527344 158.144531 7.5 C 154.851562 7.335938 151.558594 7.171875 148.167969 7 C 148.167969 5.679688 148.167969 4.359375 148.167969 3 Z M 148.167969 3 "/>
<path style=" stroke:none;fill-rule:nonzero;fill:rgb(8.627451%,8.627451%,8.627451%);fill-opacity:1;" d="M 35.917969 3 C 37.566406 3 39.210938 3 40.910156 3 C 40.910156 10.261719 40.910156 17.519531 40.910156 25 C 38.914062 25 36.917969 25 34.921875 25 C 34.429688 25.246094 34.429688 25.246094 33.925781 25.5 C 31.316406 25.722656 29.429688 25.652344 27.210938 24.1875 C 25.34375 22.515625 24.582031 20.585938 24.273438 18.125 C 24.183594 15.402344 24.332031 13.28125 25.941406 11 C 27.859375 9.265625 29.074219 8.425781 31.648438 8.40625 C 32.039062 8.398438 32.429688 8.390625 32.832031 8.382812 C 33.925781 8.5 33.925781 8.5 35.421875 9.5 C 35.585938 7.355469 35.75 5.210938 35.917969 3 Z M 30.492188 12.625 C 29.058594 14.488281 29.175781 15.875 29.199219 18.171875 C 29.464844 19.679688 29.902344 20.386719 30.929688 21.5 C 31.851562 22.042969 31.851562 22.042969 32.925781 22 C 34.441406 21.351562 35.226562 20.808594 36.105469 19.40625 C 36.546875 17.425781 36.304688 15.996094 35.917969 14 C 35.070312 12.390625 35.070312 12.390625 33.519531 12.03125 C 31.910156 11.890625 31.910156 11.890625 30.492188 12.625 Z M 30.492188 12.625 "/>
<path style=" stroke:none;fill-rule:nonzero;fill:rgb(8.235294%,8.235294%,8.235294%);fill-opacity:1;" d="M 115.429688 9.3125 C 118.550781 12.144531 118.742188 13.570312 119.234375 18 C 115.445312 18 111.660156 18 107.757812 18 C 108.84375 20.964844 108.84375 20.964844 110.441406 21.53125 C 111.789062 21.613281 111.789062 21.613281 112.871094 20.78125 C 114.8125 19.675781 116.550781 19.871094 118.734375 20 C 118.039062 22.21875 116.976562 23.472656 115.242188 25 C 112.53125 25.90625 109.761719 25.855469 107.074219 24.90625 C 104.667969 23.242188 103.363281 21.371094 102.769531 18.5 C 102.722656 15.3125 103.144531 12.988281 105.265625 10.5 C 108.140625 7.964844 112.023438 7.667969 115.429688 9.3125 Z M 108.539062 12.90625 C 107.660156 13.910156 107.660156 13.910156 107.757812 15 C 109.898438 15 112.039062 15 114.242188 15 C 113.914062 14.175781 113.585938 13.351562 113.246094 12.5 C 110.742188 11.839844 110.742188 11.839844 108.539062 12.90625 Z M 108.539062 12.90625 "/>
<path style=" stroke:none;fill-rule:nonzero;fill:rgb(8.627451%,8.627451%,8.627451%);fill-opacity:1;" d="M 216.171875 9.09375 C 218.132812 10.417969 219.257812 11.75 220.007812 14 C 220.007812 15.320312 220.007812 16.640625 220.007812 18 C 216.386719 18 212.761719 18 209.03125 18 C 209.359375 18.988281 209.691406 19.980469 210.027344 21 C 212.050781 21.578125 213.140625 21.441406 215.019531 20.5 C 215.183594 20.335938 215.347656 20.171875 215.515625 20 C 216.273438 19.964844 217.035156 19.957031 217.792969 19.96875 C 218.207031 19.972656 218.617188 19.976562 219.042969 19.984375 C 219.519531 19.992188 219.519531 19.992188 220.007812 20 C 219.085938 22.027344 218.222656 23.554688 216.515625 25 C 213.820312 25.898438 211.058594 25.851562 208.375 24.9375 C 206.316406 23.5 204.851562 21.933594 204.042969 19.5 C 203.742188 16.511719 204.015625 14.148438 205.539062 11.5 C 208.535156 8.332031 212.113281 7.636719 216.171875 9.09375 Z M 209.84375 12.625 C 208.863281 13.484375 208.863281 13.484375 209.03125 15 C 211.171875 15 213.3125 15 215.515625 15 C 214.347656 12.433594 214.347656 12.433594 212.554688 12 C 211.027344 11.882812 211.027344 11.882812 209.84375 12.625 Z M 209.84375 12.625 "/>
<path style=" stroke:none;fill-rule:nonzero;fill:rgb(8.235294%,8.235294%,8.235294%);fill-opacity:1;" d="M 199.597656 8.789062 C 201.097656 9.90625 201.628906 11.234375 202.046875 13 C 202.21875 15.078125 202.1875 17.136719 202.140625 19.21875 C 202.128906 20.054688 202.128906 20.054688 202.121094 20.90625 C 202.101562 22.269531 202.078125 23.636719 202.046875 25 C 200.402344 25 198.753906 25 197.058594 25 C 196.8125 19.308594 196.8125 19.308594 196.558594 13.5 C 194.769531 12.375 194.769531 12.375 193.472656 12.625 C 192.46875 12.925781 192.46875 12.925781 192.070312 14 C 191.992188 14.832031 191.945312 15.667969 191.910156 16.503906 C 191.890625 16.996094 191.871094 17.488281 191.847656 18 C 191.828125 18.515625 191.808594 19.03125 191.789062 19.5625 C 191.765625 20.082031 191.746094 20.601562 191.722656 21.140625 C 191.671875 22.425781 191.621094 23.710938 191.570312 25 C 189.925781 25 188.277344 25 186.582031 25 C 186.582031 19.71875 186.582031 14.441406 186.582031 9 C 188.0625 9 189.546875 9 191.070312 9 C 191.234375 9.328125 191.402344 9.660156 191.570312 10 C 191.890625 9.753906 192.207031 9.503906 192.535156 9.25 C 194.835938 8.121094 197.136719 8.105469 199.597656 8.789062 Z M 199.597656 8.789062 "/>
<path style=" stroke:none;fill-rule:nonzero;fill:rgb(7.843138%,7.843138%,7.843138%);fill-opacity:1;" d="M 85.308594 9 C 86.953125 9 88.601562 9 90.296875 9 C 90.328125 9.78125 90.359375 10.566406 90.390625 11.371094 C 90.429688 12.394531 90.472656 13.414062 90.515625 14.4375 C 90.535156 14.953125 90.554688 15.46875 90.574219 16 C 90.605469 16.742188 90.605469 16.742188 90.636719 17.496094 C 90.65625 17.953125 90.675781 18.40625 90.695312 18.875 C 90.730469 20.015625 90.730469 20.015625 91.296875 21 C 92.613281 21 93.929688 21 95.285156 21 C 95.449219 17.039062 95.617188 13.078125 95.785156 9 C 97.429688 9 99.078125 9 100.773438 9 C 100.773438 14.28125 100.773438 19.558594 100.773438 25 C 99.292969 25 97.8125 25 96.285156 25 C 96.121094 24.671875 95.953125 24.339844 95.785156 24 C 95.457031 24.246094 95.125 24.496094 94.789062 24.75 C 92.878906 25.707031 91.394531 25.820312 89.300781 25.5 C 87.511719 24.679688 86.910156 24.15625 85.808594 22.5 C 85.214844 19.597656 85.25 16.726562 85.277344 13.78125 C 85.28125 13.320312 85.28125 12.859375 85.285156 12.382812 C 85.289062 11.253906 85.300781 10.128906 85.308594 9 Z M 85.308594 9 "/>
<path style=" stroke:none;fill-rule:nonzero;fill:rgb(8.235294%,8.235294%,8.235294%);fill-opacity:1;" d="M 180.285156 9.09375 C 182.011719 10.289062 183.148438 11.621094 184.085938 13.5 C 184.6875 20.113281 184.6875 20.113281 183.058594 22.59375 C 181.382812 24.457031 179.472656 25.328125 176.984375 25.636719 C 174.496094 25.742188 172.71875 25.4375 170.617188 24 C 168.53125 21.925781 167.554688 20.109375 167.46875 17.15625 C 167.511719 14.554688 167.957031 12.542969 169.621094 10.5 C 172.714844 7.96875 176.617188 7.800781 180.285156 9.09375 Z M 173.671875 12.59375 C 172.183594 14.566406 172.265625 16.171875 172.375 18.597656 C 172.523438 20.097656 172.523438 20.097656 173.640625 21.4375 C 175.136719 22.144531 175.136719 22.144531 176.945312 21.75 C 178.5625 21.152344 178.5625 21.152344 179.316406 20.1875 C 179.882812 17.796875 179.90625 15.804688 179.035156 13.53125 C 178.148438 12.390625 178.148438 12.390625 176.667969 11.96875 C 175.089844 11.90625 175.089844 11.90625 173.671875 12.59375 Z M 173.671875 12.59375 "/>
<path style=" stroke:none;fill-rule:nonzero;fill:rgb(7.843138%,7.843138%,7.843138%);fill-opacity:1;" d="M 132.484375 9.0625 C 133.972656 10.210938 134.53125 11.253906 135.195312 13 C 135.195312 13.328125 135.195312 13.660156 135.195312 14 C 133.683594 14.117188 132.21875 14.179688 130.707031 14 C 129.617188 13 129.617188 13 128.710938 12 C 127.132812 11.832031 127.132812 11.832031 125.71875 12 C 126.011719 13.011719 126.011719 13.011719 126.714844 14 C 128.058594 14.496094 128.058594 14.496094 129.617188 14.75 C 133.617188 15.644531 133.617188 15.644531 135.195312 17.5 C 135.953125 19.25 135.703125 19.980469 135.101562 21.8125 C 133.925781 24.007812 133.027344 24.722656 130.707031 25.5 C 127.371094 25.863281 124.433594 25.632812 121.726562 23.5 C 120.230469 21.15625 120.230469 21.15625 120.230469 19.5 C 121.742188 19.386719 123.210938 19.316406 124.71875 19.5 C 125.53125 20.5 125.53125 20.5 126.21875 21.5 C 128.027344 21.667969 128.027344 21.667969 129.710938 21.5 C 129.710938 20.839844 129.710938 20.179688 129.710938 19.5 C 129.269531 19.382812 128.832031 19.269531 128.378906 19.148438 C 122.292969 17.4375 122.292969 17.4375 120.730469 15 C 120.367188 13.058594 120.542969 12.292969 121.601562 10.625 C 124.542969 7.679688 128.683594 7.859375 132.484375 9.0625 Z M 132.484375 9.0625 "/>
<path style=" stroke:none;fill-rule:nonzero;fill:rgb(8.235294%,8.235294%,8.235294%);fill-opacity:1;" d="M 43.902344 9 C 45.382812 9 46.863281 9 48.390625 9 C 48.421875 9.742188 48.453125 10.480469 48.484375 11.242188 C 48.523438 12.214844 48.566406 13.1875 48.609375 14.15625 C 48.628906 14.644531 48.648438 15.132812 48.667969 15.636719 C 48.699219 16.339844 48.699219 16.339844 48.734375 17.054688 C 48.75 17.488281 48.769531 17.921875 48.789062 18.367188 C 48.855469 19.582031 48.855469 19.582031 49.390625 21 C 51.457031 21.105469 51.457031 21.105469 53.378906 20.5 C 53.859375 19.085938 53.96875 17.710938 54.035156 16.226562 C 54.058594 15.804688 54.078125 15.382812 54.101562 14.945312 C 54.121094 14.511719 54.140625 14.074219 54.160156 13.625 C 54.179688 13.179688 54.203125 12.738281 54.226562 12.28125 C 54.277344 11.1875 54.328125 10.09375 54.378906 9 C 55.859375 9 57.339844 9 58.867188 9 C 58.867188 14.28125 58.867188 19.558594 58.867188 25 C 57.386719 25 55.90625 25 54.378906 25 C 54.214844 24.671875 54.046875 24.339844 53.878906 24 C 53.550781 24.246094 53.21875 24.496094 52.882812 24.75 C 50.972656 25.707031 49.492188 25.816406 47.394531 25.5 C 45.972656 24.882812 45.183594 24.4375 44.339844 23.136719 C 43.78125 21.6875 43.789062 20.511719 43.804688 18.960938 C 43.808594 18.382812 43.8125 17.800781 43.8125 17.203125 C 43.820312 16.601562 43.832031 15.996094 43.839844 15.375 C 43.84375 14.765625 43.847656 14.152344 43.851562 13.523438 C 43.863281 12.015625 43.882812 10.507812 43.902344 9 Z M 43.902344 9 "/>
<path style=" stroke:none;fill-rule:nonzero;fill:rgb(8.235294%,8.235294%,8.235294%);fill-opacity:1;" d="M 138.6875 4 C 140.335938 4 141.980469 4 143.679688 4 C 143.679688 5.648438 143.679688 7.300781 143.679688 9 C 144.664062 9 145.652344 9 146.671875 9 C 146.671875 9.988281 146.671875 10.980469 146.671875 12 C 145.683594 12 144.695312 12 143.679688 12 C 143.84375 14.96875 144.007812 17.941406 144.175781 21 C 145 21.164062 145.824219 21.328125 146.671875 21.5 C 146.671875 22.65625 146.671875 23.808594 146.671875 25 C 145.714844 25.054688 144.757812 25.09375 143.800781 25.125 C 143.269531 25.148438 142.738281 25.171875 142.1875 25.195312 C 140.683594 25 140.683594 25 139.5 24.34375 C 138.175781 22.148438 138.480469 19.882812 138.5625 17.375 C 138.574219 16.859375 138.582031 16.34375 138.589844 15.8125 C 138.613281 14.542969 138.648438 13.269531 138.6875 12 C 137.867188 12 137.042969 12 136.195312 12 C 136.195312 11.011719 136.195312 10.019531 136.195312 9 C 137.019531 9 137.839844 9 138.6875 9 C 138.6875 7.351562 138.6875 5.699219 138.6875 4 Z M 138.6875 4 "/>
<path style=" stroke:none;fill-rule:nonzero;fill:rgb(11.764706%,11.764706%,11.764706%);fill-opacity:1;" d="M 85.308594 9 C 86.953125 9 88.601562 9 90.296875 9 C 90.460938 13.453125 90.625 17.910156 90.796875 22.5 C 89.808594 22.996094 88.820312 23.488281 87.804688 24 C 87.308594 23.835938 86.816406 23.671875 86.304688 23.5 C 85.011719 20.472656 85.183594 16.945312 85.246094 13.71875 C 85.25 13.261719 85.253906 12.804688 85.261719 12.335938 C 85.273438 11.222656 85.289062 10.113281 85.308594 9 Z M 85.308594 9 "/>
<path style=" stroke:none;fill-rule:nonzero;fill:rgb(3.921569%,3.921569%,3.921569%);fill-opacity:1;" d="M 120.230469 19.5 C 121.742188 19.386719 123.210938 19.316406 124.71875 19.5 C 125.53125 20.5 125.53125 20.5 126.21875 21.5 C 128.402344 21.734375 129.359375 21.734375 131.207031 20.5 C 131.207031 21.160156 131.207031 21.820312 131.207031 22.5 C 127.5 23.144531 127.5 23.144531 125.71875 22.5 C 125.554688 22.828125 125.390625 23.160156 125.21875 23.5 C 125.054688 23.664062 124.890625 23.828125 124.71875 24 C 125.050781 24.328125 125.378906 24.660156 125.71875 25 C 123.96875 24.847656 123.234375 24.507812 121.851562 23.375 C 120.71875 21.988281 120.378906 21.253906 120.230469 19.5 Z M 120.230469 19.5 "/>
<path style=" stroke:none;fill-rule:nonzero;fill:rgb(10.588235%,10.588235%,10.588235%);fill-opacity:1;" d="M 195.5625 9 C 196.21875 9 196.878906 9 197.558594 9 C 197.558594 9.328125 197.558594 9.660156 197.558594 10 C 198.542969 9.835938 199.53125 9.671875 200.550781 9.5 C 200.714844 10.488281 200.878906 11.480469 201.050781 12.5 C 199.179688 13.410156 198.054688 13.683594 196.058594 13 C 195.15625 12.21875 195.15625 12.21875 194.5625 11.5 C 194.894531 10.675781 195.222656 9.851562 195.5625 9 Z M 195.5625 9 "/>
<path style=" stroke:none;fill-rule:nonzero;fill:rgb(5.490196%,5.098039%,5.490196%);fill-opacity:1;" d="M 201.050781 11 C 201.578125 11.90625 201.578125 11.90625 202.046875 13 C 201.882812 13.496094 201.71875 13.988281 201.546875 14.5 C 201.382812 14.335938 201.21875 14.171875 201.050781 14 C 200.75 14.164062 200.453125 14.328125 200.144531 14.5 C 199.054688 15 199.054688 15 197.558594 15 C 197.558594 18.300781 197.558594 21.601562 197.558594 25 C 197.390625 25 197.226562 25 197.058594 25 C 197.058594 21.203125 197.058594 17.410156 197.058594 13.5 C 198.210938 13.171875 199.363281 12.839844 200.550781 12.5 C 200.714844 12.003906 200.878906 11.511719 201.050781 11 Z M 201.050781 11 "/>
<path style=" stroke:none;fill-rule:nonzero;fill:rgb(7.450981%,7.450981%,7.450981%);fill-opacity:1;" d="M 172.113281 18.5 C 172.421875 18.890625 172.730469 19.285156 173.050781 19.6875 C 174.058594 20.984375 174.058594 20.984375 175.105469 22 C 174 23.109375 173.070312 23.464844 171.613281 24 C 172.273438 24.328125 172.933594 24.660156 173.609375 25 C 171.777344 24.847656 171.226562 24.621094 169.960938 23.21875 C 169.683594 22.816406 169.40625 22.414062 169.121094 22 C 169.523438 21.9375 169.921875 21.875 170.335938 21.8125 C 170.757812 21.710938 171.179688 21.605469 171.613281 21.5 C 172.261719 20.386719 172.261719 20.386719 172.113281 18.5 Z M 172.113281 18.5 "/>
<path style=" stroke:none;fill-rule:nonzero;fill:rgb(5.882353%,5.882353%,5.882353%);fill-opacity:1;" d="M 114.242188 20 C 115.726562 20 117.207031 20 118.734375 20 C 117.796875 22.375 117.796875 22.375 117.238281 23.5 C 116.300781 23.4375 116.300781 23.4375 115.242188 23 C 114.617188 21.46875 114.617188 21.46875 114.242188 20 Z M 114.242188 20 "/>
<path style=" stroke:none;fill-rule:nonzero;fill:rgb(8.627451%,8.627451%,8.627451%);fill-opacity:1;" d="M 121.226562 20 C 122.214844 20 123.203125 20 124.222656 20 C 124.550781 20.660156 124.878906 21.320312 125.21875 22 C 124.230469 22.328125 123.242188 22.660156 122.226562 23 C 121.226562 21.5 121.226562 21.5 121.226562 20 Z M 121.226562 20 "/>
<path style=" stroke:none;fill-rule:nonzero;fill:rgb(6.27451%,6.27451%,6.27451%);fill-opacity:1;" d="M 24.445312 14.5 C 25.132812 15.144531 25.796875 15.8125 26.441406 16.5 C 26.441406 16.828125 26.441406 17.160156 26.441406 17.5 C 26.113281 17.828125 25.78125 18.160156 25.441406 18.5 C 25.609375 18.828125 25.773438 19.160156 25.941406 19.5 C 25.613281 19.996094 25.285156 20.488281 24.945312 21 C 24.441406 19.492188 24.394531 18.480469 24.414062 16.90625 C 24.417969 16.457031 24.421875 16.003906 24.425781 15.539062 C 24.433594 15.199219 24.4375 14.855469 24.445312 14.5 Z M 26.441406 15.5 C 27.4375 16 27.4375 16 27.4375 16 Z M 26.441406 15.5 "/>
<path style=" stroke:none;fill-rule:nonzero;fill:rgb(3.921569%,3.921569%,3.921569%);fill-opacity:1;" d="M 125.21875 8.5 C 130.96875 8.222656 130.96875 8.222656 133.699219 10 C 133.535156 10.328125 133.371094 10.660156 133.203125 11 C 132.917969 10.890625 132.632812 10.785156 132.34375 10.671875 C 129.847656 9.769531 127.867188 9.332031 125.21875 9.5 C 125.21875 9.171875 125.21875 8.839844 125.21875 8.5 Z M 125.21875 8.5 "/>
<path style=" stroke:none;fill-rule:nonzero;fill:rgb(5.098039%,5.098039%,5.098039%);fill-opacity:1;" d="M 148.667969 19 C 149.378906 20.429688 148.964844 21.46875 148.667969 23 C 148.335938 23 148.007812 23 147.667969 23 C 147.667969 23.496094 147.667969 23.988281 147.667969 24.5 C 148.164062 24.664062 148.65625 24.828125 149.164062 25 C 148.507812 25 147.847656 25 147.171875 25 C 146.984375 21.308594 146.984375 21.308594 147.917969 19.75 C 148.164062 19.503906 148.414062 19.253906 148.667969 19 Z M 148.667969 19 "/>
<path style=" stroke:none;fill-rule:nonzero;fill:rgb(5.882353%,5.882353%,5.882353%);fill-opacity:1;" d="M 34.921875 9.5 C 35.414062 9.996094 35.910156 10.488281 36.417969 11 C 36.089844 11.328125 35.761719 11.660156 35.421875 12 C 35.578125 13.054688 35.578125 13.054688 35.917969 14 C 35.589844 13.835938 35.261719 13.671875 34.921875 13.5 C 34.921875 13.171875 34.921875 12.839844 34.921875 12.5 C 34.59375 12.5 34.261719 12.5 33.925781 12.5 C 33.757812 12.003906 33.59375 11.511719 33.425781 11 C 33.753906 11 34.082031 11 34.421875 11 C 34.585938 10.503906 34.753906 10.011719 34.921875 9.5 Z M 34.921875 9.5 "/>
<path style=" stroke:none;fill-rule:nonzero;fill:rgb(10.196079%,10.196079%,10.196079%);fill-opacity:1;" d="M 132.703125 18 C 133.527344 18.164062 134.347656 18.328125 135.195312 18.5 C 134.867188 19.65625 134.539062 20.808594 134.199219 22 C 134.035156 21.503906 133.871094 21.011719 133.699219 20.5 C 132.953125 19.667969 132.953125 19.667969 132.203125 19 C 132.367188 18.671875 132.53125 18.339844 132.703125 18 Z M 132.703125 18 "/>
<path style=" stroke:none;fill-rule:nonzero;fill:rgb(3.529412%,3.529412%,3.529412%);fill-opacity:1;" d="M 217.511719 20 C 218.335938 20 219.160156 20 220.007812 20 C 218.695312 22.875 218.695312 22.875 217.011719 24 C 217.011719 23.503906 217.011719 23.011719 217.011719 22.5 C 217.34375 22.335938 217.671875 22.171875 218.011719 22 C 217.847656 21.339844 217.683594 20.679688 217.511719 20 Z M 217.511719 20 "/>
<path style=" stroke:none;fill-rule:nonzero;fill:rgb(4.705882%,4.705882%,4.705882%);fill-opacity:1;" d="M 169.121094 22 C 170.601562 22.246094 170.601562 22.246094 172.113281 22.5 C 171.949219 22.996094 171.785156 23.488281 171.613281 24 C 172.273438 24.328125 172.933594 24.660156 173.609375 25 C 171.777344 24.847656 171.226562 24.621094 169.960938 23.21875 C 169.683594 22.816406 169.40625 22.414062 169.121094 22 Z M 169.121094 22 "/>
<path style=" stroke:none;fill-rule:nonzero;fill:rgb(6.666667%,6.666667%,6.666667%);fill-opacity:1;" d="M 215.515625 20 C 216.011719 20.164062 216.503906 20.328125 217.011719 20.5 C 216.027344 21.761719 215.53125 21.996094 213.925781 22.34375 C 213.230469 22.421875 213.230469 22.421875 212.523438 22.5 C 212.523438 22.171875 212.523438 21.839844 212.523438 21.5 C 212.925781 21.34375 213.324219 21.191406 213.738281 21.03125 C 214.964844 20.617188 214.964844 20.617188 215.515625 20 Z M 215.515625 20 "/>
</g>
</svg>
