<?xml version="1.0" encoding="UTF-8"?>
<svg xmlns="http://www.w3.org/2000/svg" xmlns:xlink="http://www.w3.org/1999/xlink" width="297px" height="40px" viewBox="0 0 298 40" version="1.1">
<g id="surface1">
<path style=" stroke:none;fill-rule:nonzero;fill:rgb(8.627451%,8.235294%,8.627451%);fill-opacity:1;" d="M 103.292969 4.042969 C 107.554688 6.738281 109.8125 9.996094 111.066406 14.882812 C 111.859375 20.171875 110.59375 25.097656 108.667969 30 C 109.328125 30.660156 109.988281 31.320312 110.667969 32 C 110.226562 33.101562 109.785156 34.199219 109.332031 35.332031 C 106.667969 35.332031 106.667969 35.332031 105.375 34.292969 C 104.066406 33.140625 104.066406 33.140625 102.488281 33.59375 C 101.585938 33.792969 101.585938 33.792969 100.667969 34 C 95.699219 34.417969 91.433594 34.414062 87.332031 31.332031 C 83.523438 27.523438 81.910156 24.042969 81.707031 18.75 C 81.851562 14.171875 82.789062 10.671875 85.960938 7.285156 C 90.742188 2.941406 97.035156 1.75 103.292969 4.042969 Z M 91.332031 10.667969 C 89.164062 13.195312 88.679688 16.066406 88.667969 19.332031 C 88.921875 22.324219 89.578125 24.566406 91.792969 26.667969 C 94.324219 28.195312 95.761719 28.289062 98.667969 28 C 98.007812 27.121094 97.347656 26.238281 96.667969 25.332031 C 97.328125 24.453125 97.988281 23.574219 98.667969 22.667969 C 99.066406 22.886719 99.464844 23.105469 99.875 23.332031 C 101.371094 24.136719 101.371094 24.136719 103.332031 24 C 104.726562 21.214844 104.296875 17.699219 104 14.667969 C 103.113281 12.453125 101.679688 11.011719 100 9.332031 C 96.535156 8.285156 94.449219 8.902344 91.332031 10.667969 Z M 91.332031 10.667969 "/>
<path style=" stroke:none;fill-rule:nonzero;fill:rgb(8.627451%,8.627451%,8.627451%);fill-opacity:1;" d="M 12.941406 3.933594 C 13.671875 3.9375 13.671875 3.9375 14.417969 3.9375 C 15.972656 3.941406 17.527344 3.949219 19.082031 3.957031 C 20.136719 3.960938 21.191406 3.964844 22.246094 3.96875 C 24.828125 3.976562 27.414062 3.984375 30 4 C 30 5.761719 30 7.519531 30 9.332031 C 24.941406 9.332031 19.878906 9.332031 14.667969 9.332031 C 14.667969 11.3125 14.667969 13.292969 14.667969 15.332031 C 19.285156 15.332031 23.90625 15.332031 28.667969 15.332031 C 28.667969 17.09375 28.667969 18.851562 28.667969 20.667969 C 24.046875 20.667969 19.425781 20.667969 14.667969 20.667969 C 14.667969 22.867188 14.667969 25.066406 14.667969 27.332031 C 19.945312 27.332031 25.226562 27.332031 30.667969 27.332031 C 30.667969 29.3125 30.667969 31.292969 30.667969 33.332031 C 23.1875 33.332031 15.707031 33.332031 8 33.332031 C 8 24.09375 8 14.851562 8 5.332031 C 7.558594 5.113281 7.121094 4.894531 6.667969 4.667969 C 8.675781 3.664062 10.742188 3.917969 12.941406 3.933594 Z M 12.941406 3.933594 "/>
<path style=" stroke:none;fill-rule:nonzero;fill:rgb(8.627451%,8.627451%,9.019608%);fill-opacity:1;" d="M 198 4 C 205.699219 4 213.398438 4 221.332031 4 C 222.410156 6.152344 221.867188 7.699219 221.332031 10 C 220.273438 11.527344 219.289062 12.78125 218.042969 14.125 C 217.378906 14.871094 216.714844 15.621094 216.050781 16.371094 C 215.542969 16.933594 215.542969 16.933594 215.023438 17.511719 C 213.375 19.371094 211.792969 21.289062 210.207031 23.207031 C 209.257812 24.347656 208.3125 25.492188 207.332031 26.667969 C 212.171875 26.886719 217.011719 27.105469 222 27.332031 C 222 29.3125 222 31.292969 222 33.332031 C 213.640625 33.332031 205.28125 33.332031 196.667969 33.332031 C 196.667969 28.15625 196.78125 27.101562 200 23.75 C 200.675781 23.003906 201.347656 22.257812 202.019531 21.507812 C 202.355469 21.144531 202.691406 20.777344 203.035156 20.402344 C 204.425781 18.863281 205.714844 17.25 207 15.625 C 207.40625 15.117188 207.8125 14.605469 208.230469 14.082031 C 209.28125 12.734375 210.308594 11.367188 211.332031 10 C 206.933594 9.78125 202.535156 9.558594 198 9.332031 C 198 7.574219 198 5.8125 198 4 Z M 198 4 "/>
<path style=" stroke:none;fill-rule:nonzero;fill:rgb(8.627451%,8.627451%,8.627451%);fill-opacity:1;" d="M 48 4 C 50.199219 4 52.398438 4 54.667969 4 C 54.667969 13.679688 54.667969 23.359375 54.667969 33.332031 C 52 33.332031 49.332031 33.332031 46.667969 33.332031 C 46.007812 33.664062 46.007812 33.664062 45.332031 34 C 41.847656 34.296875 39.328125 34.203125 36.363281 32.253906 C 33.867188 30.023438 32.847656 27.445312 32.4375 24.164062 C 32.320312 20.539062 32.511719 17.710938 34.667969 14.667969 C 37.230469 12.351562 38.855469 11.238281 42.292969 11.207031 C 42.8125 11.199219 43.335938 11.1875 43.871094 11.179688 C 45.332031 11.332031 45.332031 11.332031 47.332031 12.667969 C 47.554688 9.808594 47.773438 6.945312 48 4 Z M 40.75 16.832031 C 38.832031 19.316406 38.988281 21.167969 39.019531 24.230469 C 39.375 26.238281 39.957031 27.179688 41.332031 28.667969 C 42.5625 29.390625 42.5625 29.390625 44 29.332031 C 46.023438 28.464844 47.074219 27.746094 48.25 25.875 C 48.835938 23.234375 48.515625 21.332031 48 18.667969 C 46.863281 16.519531 46.863281 16.519531 44.792969 16.042969 C 42.644531 15.851562 42.644531 15.851562 40.75 16.832031 Z M 40.75 16.832031 "/>
<path style=" stroke:none;fill-rule:nonzero;fill:rgb(8.235294%,8.235294%,8.235294%);fill-opacity:1;" d="M 154.25 12.417969 C 158.425781 16.195312 158.675781 18.089844 159.332031 24 C 154.273438 24 149.214844 24 144 24 C 145.449219 27.953125 145.449219 27.953125 147.582031 28.707031 C 149.382812 28.816406 149.382812 28.816406 150.832031 27.707031 C 153.429688 26.234375 155.746094 26.496094 158.667969 26.667969 C 157.738281 29.625 156.320312 31.296875 154 33.332031 C 150.375 34.542969 146.679688 34.472656 143.082031 33.207031 C 139.871094 30.992188 138.128906 28.492188 137.332031 24.667969 C 137.269531 20.417969 137.832031 17.320312 140.667969 14 C 144.511719 10.621094 149.699219 10.226562 154.25 12.417969 Z M 145.042969 17.207031 C 143.871094 18.546875 143.871094 18.546875 144 20 C 146.859375 20 149.71875 20 152.667969 20 C 152.226562 18.898438 151.785156 17.800781 151.332031 16.667969 C 147.988281 15.785156 147.988281 15.785156 145.042969 17.207031 Z M 145.042969 17.207031 "/>
<path style=" stroke:none;fill-rule:nonzero;fill:rgb(8.627451%,8.627451%,8.627451%);fill-opacity:1;" d="M 288.875 12.125 C 291.496094 13.894531 293 15.664062 294 18.667969 C 294 20.425781 294 22.1875 294 24 C 289.160156 24 284.320312 24 279.332031 24 C 279.773438 25.320312 280.214844 26.640625 280.667969 28 C 283.367188 28.769531 284.824219 28.585938 287.332031 27.332031 C 287.554688 27.113281 287.773438 26.894531 288 26.667969 C 289.011719 26.617188 290.027344 26.609375 291.042969 26.625 C 291.59375 26.632812 292.144531 26.636719 292.710938 26.644531 C 293.347656 26.65625 293.347656 26.65625 294 26.667969 C 292.773438 29.367188 291.613281 31.410156 289.332031 33.332031 C 285.734375 34.53125 282.042969 34.46875 278.457031 33.25 C 275.707031 31.332031 273.75 29.246094 272.667969 26 C 272.265625 22.015625 272.628906 18.863281 274.667969 15.332031 C 278.671875 11.109375 283.453125 10.179688 288.875 12.125 Z M 280.417969 16.832031 C 279.105469 17.980469 279.105469 17.980469 279.332031 20 C 282.191406 20 285.054688 20 288 20 C 286.4375 16.578125 286.4375 16.578125 284.042969 16 C 282.003906 15.839844 282.003906 15.839844 280.417969 16.832031 Z M 280.417969 16.832031 "/>
<path style=" stroke:none;fill-rule:nonzero;fill:rgb(8.235294%,8.235294%,8.235294%);fill-opacity:1;" d="M 266.726562 11.722656 C 268.730469 13.207031 269.4375 14.980469 270 17.332031 C 270.226562 20.105469 270.1875 22.847656 270.125 25.625 C 270.113281 26.738281 270.113281 26.738281 270.097656 27.875 C 270.074219 29.695312 270.042969 31.511719 270 33.332031 C 267.800781 33.332031 265.601562 33.332031 263.332031 33.332031 C 263.003906 25.742188 263.003906 25.742188 262.667969 18 C 260.273438 16.5 260.273438 16.5 258.542969 16.832031 C 257.203125 17.234375 257.203125 17.234375 256.667969 18.667969 C 256.566406 19.777344 256.5 20.890625 256.457031 22.003906 C 256.429688 22.664062 256.398438 23.320312 256.371094 23.996094 C 256.34375 24.6875 256.320312 25.375 256.292969 26.082031 C 256.261719 26.777344 256.234375 27.46875 256.203125 28.183594 C 256.132812 29.902344 256.066406 31.617188 256 33.332031 C 253.800781 33.332031 251.601562 33.332031 249.332031 33.332031 C 249.332031 26.292969 249.332031 19.253906 249.332031 12 C 251.3125 12 253.292969 12 255.332031 12 C 255.554688 12.441406 255.773438 12.878906 256 13.332031 C 256.425781 13.003906 256.851562 12.671875 257.292969 12.332031 C 260.363281 10.828125 263.4375 10.804688 266.726562 11.722656 Z M 266.726562 11.722656 "/>
<path style=" stroke:none;fill-rule:nonzero;fill:rgb(7.843138%,7.843138%,7.843138%);fill-opacity:1;" d="M 114 12 C 116.199219 12 118.398438 12 120.667969 12 C 120.707031 13.042969 120.746094 14.085938 120.789062 15.160156 C 120.84375 16.523438 120.902344 17.886719 120.957031 19.25 C 120.984375 19.9375 121.011719 20.625 121.039062 21.335938 C 121.078125 22.320312 121.078125 22.320312 121.121094 23.328125 C 121.148438 23.9375 121.171875 24.542969 121.195312 25.167969 C 121.242188 26.691406 121.242188 26.691406 122 28 C 123.761719 28 125.519531 28 127.332031 28 C 127.554688 22.71875 127.773438 17.441406 128 12 C 130.199219 12 132.398438 12 134.667969 12 C 134.667969 19.039062 134.667969 26.078125 134.667969 33.332031 C 132.6875 33.332031 130.707031 33.332031 128.667969 33.332031 C 128.445312 32.894531 128.226562 32.453125 128 32 C 127.558594 32.328125 127.121094 32.660156 126.667969 33 C 124.117188 34.273438 122.132812 34.425781 119.332031 34 C 116.941406 32.910156 116.136719 32.207031 114.667969 30 C 113.875 26.132812 113.921875 22.304688 113.957031 18.375 C 113.960938 17.761719 113.964844 17.144531 113.96875 16.511719 C 113.976562 15.007812 113.988281 13.503906 114 12 Z M 114 12 "/>
<path style=" stroke:none;fill-rule:nonzero;fill:rgb(8.235294%,8.235294%,8.235294%);fill-opacity:1;" d="M 240.917969 12.125 C 243.226562 13.71875 244.746094 15.492188 246 18 C 246.800781 26.816406 246.800781 26.816406 244.625 30.125 C 242.386719 32.609375 239.832031 33.773438 236.507812 34.183594 C 233.183594 34.324219 230.8125 33.917969 228 32 C 225.210938 29.234375 223.910156 26.8125 223.792969 22.875 C 223.847656 19.40625 224.445312 16.722656 226.667969 14 C 230.800781 10.628906 236.019531 10.402344 240.917969 12.125 Z M 232.082031 16.792969 C 230.09375 19.421875 230.199219 21.5625 230.347656 24.796875 C 230.546875 26.796875 230.546875 26.796875 232.042969 28.582031 C 234.039062 29.527344 234.039062 29.527344 236.457031 29 C 238.617188 28.203125 238.617188 28.203125 239.625 26.917969 C 240.378906 23.730469 240.410156 21.070312 239.25 18.042969 C 238.0625 16.523438 238.0625 16.523438 236.082031 15.957031 C 233.976562 15.875 233.976562 15.875 232.082031 16.792969 Z M 232.082031 16.792969 "/>
<path style=" stroke:none;fill-rule:nonzero;fill:rgb(7.843138%,7.843138%,7.843138%);fill-opacity:1;" d="M 177.042969 12.082031 C 179.03125 13.613281 179.773438 15.003906 180.667969 17.332031 C 180.667969 17.773438 180.667969 18.214844 180.667969 18.667969 C 178.644531 18.824219 176.683594 18.90625 174.667969 18.667969 C 173.207031 17.332031 173.207031 17.332031 172 16 C 169.886719 15.777344 169.886719 15.777344 168 16 C 168.390625 17.347656 168.390625 17.347656 169.332031 18.667969 C 171.128906 19.328125 171.128906 19.328125 173.207031 19.667969 C 178.554688 20.859375 178.554688 20.859375 180.667969 23.332031 C 181.675781 25.664062 181.339844 26.640625 180.542969 29.082031 C 178.96875 32.007812 177.769531 32.964844 174.667969 34 C 170.210938 34.484375 166.285156 34.179688 162.667969 31.332031 C 160.667969 28.207031 160.667969 28.207031 160.667969 26 C 162.6875 25.847656 164.652344 25.753906 166.667969 26 C 167.75 27.332031 167.75 27.332031 168.667969 28.667969 C 171.082031 28.890625 171.082031 28.890625 173.332031 28.667969 C 173.332031 27.785156 173.332031 26.90625 173.332031 26 C 172.746094 25.847656 172.160156 25.691406 171.554688 25.535156 C 163.421875 23.25 163.421875 23.25 161.332031 20 C 160.847656 17.410156 161.085938 16.390625 162.5 14.167969 C 166.429688 10.238281 171.964844 10.480469 177.042969 12.082031 Z M 177.042969 12.082031 "/>
<path style=" stroke:none;fill-rule:nonzero;fill:rgb(8.235294%,8.235294%,8.235294%);fill-opacity:1;" d="M 58.667969 12 C 60.648438 12 62.625 12 64.667969 12 C 64.707031 12.988281 64.746094 13.976562 64.789062 14.992188 C 64.84375 16.285156 64.902344 17.582031 64.957031 18.875 C 64.984375 19.527344 65.011719 20.175781 65.039062 20.847656 C 65.078125 21.785156 65.078125 21.785156 65.121094 22.742188 C 65.148438 23.316406 65.171875 23.894531 65.195312 24.488281 C 65.285156 26.109375 65.285156 26.109375 66 28 C 68.761719 28.140625 68.761719 28.140625 71.332031 27.332031 C 71.976562 25.449219 72.117188 23.613281 72.210938 21.636719 C 72.238281 21.074219 72.265625 20.507812 72.296875 19.929688 C 72.320312 19.347656 72.347656 18.765625 72.375 18.167969 C 72.402344 17.574219 72.433594 16.984375 72.460938 16.371094 C 72.53125 14.914062 72.601562 13.457031 72.667969 12 C 74.648438 12 76.625 12 78.667969 12 C 78.667969 19.039062 78.667969 26.078125 78.667969 33.332031 C 76.6875 33.332031 74.707031 33.332031 72.667969 33.332031 C 72.445312 32.894531 72.226562 32.453125 72 32 C 71.558594 32.328125 71.121094 32.660156 70.667969 33 C 68.113281 34.277344 66.136719 34.421875 63.332031 34 C 61.4375 33.175781 60.378906 32.582031 59.253906 30.847656 C 58.503906 28.914062 58.515625 27.351562 58.535156 25.28125 C 58.539062 24.507812 58.546875 23.734375 58.550781 22.9375 C 58.5625 22.132812 58.570312 21.328125 58.582031 20.5 C 58.589844 19.683594 58.59375 18.871094 58.601562 18.03125 C 58.617188 16.019531 58.640625 14.011719 58.667969 12 Z M 58.667969 12 "/>
<path style=" stroke:none;fill-rule:nonzero;fill:rgb(8.235294%,8.235294%,8.235294%);fill-opacity:1;" d="M 185.332031 5.332031 C 187.535156 5.332031 189.734375 5.332031 192 5.332031 C 192 7.535156 192 9.734375 192 12 C 193.320312 12 194.640625 12 196 12 C 196 13.320312 196 14.640625 196 16 C 194.679688 16 193.359375 16 192 16 C 192.21875 19.960938 192.441406 23.921875 192.667969 28 C 193.765625 28.21875 194.867188 28.441406 196 28.667969 C 196 30.207031 196 31.746094 196 33.332031 C 194.722656 33.40625 193.445312 33.457031 192.167969 33.5 C 191.457031 33.53125 190.742188 33.5625 190.011719 33.59375 C 188 33.332031 188 33.332031 186.417969 32.457031 C 184.644531 29.53125 185.054688 26.511719 185.167969 23.167969 C 185.179688 22.480469 185.191406 21.792969 185.203125 21.082031 C 185.234375 19.386719 185.277344 17.695312 185.332031 16 C 184.234375 16 183.132812 16 182 16 C 182 14.679688 182 13.359375 182 12 C 183.101562 12 184.199219 12 185.332031 12 C 185.332031 9.800781 185.332031 7.601562 185.332031 5.332031 Z M 185.332031 5.332031 "/>
<path style=" stroke:none;fill-rule:nonzero;fill:rgb(11.764706%,11.764706%,11.764706%);fill-opacity:1;" d="M 114 12 C 116.199219 12 118.398438 12 120.667969 12 C 120.886719 17.941406 121.105469 23.878906 121.332031 30 C 120.011719 30.660156 118.691406 31.320312 117.332031 32 C 116.671875 31.78125 116.011719 31.558594 115.332031 31.332031 C 113.601562 27.292969 113.835938 22.597656 113.917969 18.292969 C 113.921875 17.683594 113.929688 17.074219 113.933594 16.445312 C 113.949219 14.964844 113.972656 13.480469 114 12 Z M 114 12 "/>
<path style=" stroke:none;fill-rule:nonzero;fill:rgb(3.921569%,3.921569%,3.921569%);fill-opacity:1;" d="M 160.667969 26 C 162.6875 25.847656 164.652344 25.753906 166.667969 26 C 167.75 27.332031 167.75 27.332031 168.667969 28.667969 C 171.585938 28.980469 172.863281 28.980469 175.332031 27.332031 C 175.332031 28.214844 175.332031 29.09375 175.332031 30 C 170.382812 30.855469 170.382812 30.855469 168 30 C 167.78125 30.441406 167.558594 30.878906 167.332031 31.332031 C 167.113281 31.554688 166.894531 31.773438 166.667969 32 C 167.105469 32.441406 167.546875 32.878906 168 33.332031 C 165.660156 33.132812 164.679688 32.679688 162.832031 31.167969 C 161.320312 29.320312 160.867188 28.339844 160.667969 26 Z M 160.667969 26 "/>
<path style=" stroke:none;fill-rule:nonzero;fill:rgb(10.588235%,10.588235%,10.588235%);fill-opacity:1;" d="M 261.332031 12 C 262.214844 12 263.09375 12 264 12 C 264 12.441406 264 12.878906 264 13.332031 C 265.320312 13.113281 266.640625 12.894531 268 12.667969 C 268.21875 13.988281 268.441406 15.308594 268.667969 16.667969 C 266.167969 17.882812 264.664062 18.246094 262 17.332031 C 260.792969 16.292969 260.792969 16.292969 260 15.332031 C 260.441406 14.234375 260.878906 13.132812 261.332031 12 Z M 261.332031 12 "/>
<path style=" stroke:none;fill-rule:nonzero;fill:rgb(5.490196%,5.098039%,5.490196%);fill-opacity:1;" d="M 268.667969 14.667969 C 269.375 15.875 269.375 15.875 270 17.332031 C 269.78125 17.992188 269.558594 18.652344 269.332031 19.332031 C 269.113281 19.113281 268.894531 18.894531 268.667969 18.667969 C 268.269531 18.886719 267.871094 19.105469 267.457031 19.332031 C 266 20 266 20 264 20 C 264 24.398438 264 28.800781 264 33.332031 C 263.78125 33.332031 263.558594 33.332031 263.332031 33.332031 C 263.332031 28.273438 263.332031 23.214844 263.332031 18 C 264.875 17.558594 266.414062 17.121094 268 16.667969 C 268.21875 16.007812 268.441406 15.347656 268.667969 14.667969 Z M 268.667969 14.667969 "/>
<path style=" stroke:none;fill-rule:nonzero;fill:rgb(7.450981%,7.450981%,7.450981%);fill-opacity:1;" d="M 230 24.667969 C 230.414062 25.1875 230.824219 25.710938 231.25 26.25 C 232.597656 27.980469 232.597656 27.980469 234 29.332031 C 232.519531 30.816406 231.277344 31.285156 229.332031 32 C 230.214844 32.441406 231.09375 32.878906 232 33.332031 C 229.550781 33.128906 228.8125 32.828125 227.125 30.957031 C 226.753906 30.421875 226.382812 29.886719 226 29.332031 C 226.535156 29.25 227.074219 29.167969 227.625 29.082031 C 228.1875 28.945312 228.753906 28.808594 229.332031 28.667969 C 230.199219 27.183594 230.199219 27.183594 230 24.667969 Z M 230 24.667969 "/>
<path style=" stroke:none;fill-rule:nonzero;fill:rgb(5.882353%,5.882353%,5.882353%);fill-opacity:1;" d="M 152.667969 26.667969 C 154.648438 26.667969 156.625 26.667969 158.667969 26.667969 C 157.417969 29.832031 157.417969 29.832031 156.667969 31.332031 C 155.417969 31.25 155.417969 31.25 154 30.667969 C 153.167969 28.625 153.167969 28.625 152.667969 26.667969 Z M 152.667969 26.667969 "/>
<path style=" stroke:none;fill-rule:nonzero;fill:rgb(8.627451%,8.627451%,8.627451%);fill-opacity:1;" d="M 162 26.667969 C 163.320312 26.667969 164.640625 26.667969 166 26.667969 C 166.441406 27.546875 166.878906 28.425781 167.332031 29.332031 C 166.011719 29.773438 164.691406 30.214844 163.332031 30.667969 C 162 28.667969 162 28.667969 162 26.667969 Z M 162 26.667969 "/>
<path style=" stroke:none;fill-rule:nonzero;fill:rgb(6.27451%,6.27451%,6.27451%);fill-opacity:1;" d="M 32.667969 19.332031 C 33.582031 20.191406 34.472656 21.085938 35.332031 22 C 35.332031 22.441406 35.332031 22.878906 35.332031 23.332031 C 34.894531 23.773438 34.453125 24.214844 34 24.667969 C 34.21875 25.105469 34.441406 25.546875 34.667969 26 C 34.226562 26.660156 33.785156 27.320312 33.332031 28 C 32.664062 25.988281 32.597656 24.640625 32.625 22.542969 C 32.632812 21.941406 32.636719 21.339844 32.644531 20.722656 C 32.652344 20.261719 32.660156 19.804688 32.667969 19.332031 Z M 35.332031 20.667969 C 36.667969 21.332031 36.667969 21.332031 36.667969 21.332031 Z M 35.332031 20.667969 "/>
<path style=" stroke:none;fill-rule:nonzero;fill:rgb(3.921569%,3.921569%,3.921569%);fill-opacity:1;" d="M 167.332031 11.332031 C 175.015625 10.964844 175.015625 10.964844 178.667969 13.332031 C 178.445312 13.773438 178.226562 14.214844 178 14.667969 C 177.621094 14.523438 177.242188 14.378906 176.851562 14.230469 C 173.515625 13.027344 170.875 12.441406 167.332031 12.667969 C 167.332031 12.226562 167.332031 11.785156 167.332031 11.332031 Z M 167.332031 11.332031 "/>
<path style=" stroke:none;fill-rule:nonzero;fill:rgb(5.098039%,5.098039%,5.098039%);fill-opacity:1;" d="M 198.667969 25.332031 C 199.621094 27.242188 199.066406 28.621094 198.667969 30.667969 C 198.226562 30.667969 197.785156 30.667969 197.332031 30.667969 C 197.332031 31.328125 197.332031 31.988281 197.332031 32.667969 C 197.992188 32.886719 198.652344 33.105469 199.332031 33.332031 C 198.453125 33.332031 197.574219 33.332031 196.667969 33.332031 C 196.421875 28.410156 196.421875 28.410156 197.667969 26.332031 C 197.996094 26.003906 198.328125 25.671875 198.667969 25.332031 Z M 198.667969 25.332031 "/>
<path style=" stroke:none;fill-rule:nonzero;fill:rgb(5.882353%,5.882353%,5.882353%);fill-opacity:1;" d="M 46.667969 12.667969 C 47.328125 13.328125 47.988281 13.988281 48.667969 14.667969 C 48.226562 15.105469 47.785156 15.546875 47.332031 16 C 47.546875 17.40625 47.546875 17.40625 48 18.667969 C 47.558594 18.445312 47.121094 18.226562 46.667969 18 C 46.667969 17.558594 46.667969 17.121094 46.667969 16.667969 C 46.226562 16.667969 45.785156 16.667969 45.332031 16.667969 C 45.113281 16.007812 44.894531 15.347656 44.667969 14.667969 C 45.105469 14.667969 45.546875 14.667969 46 14.667969 C 46.21875 14.007812 46.441406 13.347656 46.667969 12.667969 Z M 46.667969 12.667969 "/>
<path style=" stroke:none;fill-rule:nonzero;fill:rgb(10.196079%,10.196079%,10.196079%);fill-opacity:1;" d="M 177.332031 24 C 178.433594 24.21875 179.535156 24.441406 180.667969 24.667969 C 180.226562 26.207031 179.785156 27.746094 179.332031 29.332031 C 179.113281 28.671875 178.894531 28.011719 178.667969 27.332031 C 177.667969 26.222656 177.667969 26.222656 176.667969 25.332031 C 176.886719 24.894531 177.105469 24.453125 177.332031 24 Z M 177.332031 24 "/>
<path style=" stroke:none;fill-rule:nonzero;fill:rgb(3.529412%,3.529412%,3.529412%);fill-opacity:1;" d="M 290.667969 26.667969 C 291.765625 26.667969 292.867188 26.667969 294 26.667969 C 292.25 30.5 292.25 30.5 290 32 C 290 31.339844 290 30.679688 290 30 C 290.441406 29.78125 290.878906 29.558594 291.332031 29.332031 C 291.113281 28.453125 290.894531 27.574219 290.667969 26.667969 Z M 290.667969 26.667969 "/>
<path style=" stroke:none;fill-rule:nonzero;fill:rgb(4.705882%,4.705882%,4.705882%);fill-opacity:1;" d="M 226 29.332031 C 227.980469 29.664062 227.980469 29.664062 230 30 C 229.78125 30.660156 229.558594 31.320312 229.332031 32 C 230.214844 32.441406 231.09375 32.878906 232 33.332031 C 229.550781 33.128906 228.8125 32.828125 227.125 30.957031 C 226.753906 30.421875 226.382812 29.886719 226 29.332031 Z M 226 29.332031 "/>
<path style=" stroke:none;fill-rule:nonzero;fill:rgb(6.666667%,6.666667%,6.666667%);fill-opacity:1;" d="M 288 26.667969 C 288.660156 26.886719 289.320312 27.105469 290 27.332031 C 288.683594 29.015625 288.023438 29.328125 285.875 29.792969 C 284.945312 29.894531 284.945312 29.894531 284 30 C 284 29.558594 284 29.121094 284 28.667969 C 284.535156 28.460938 285.074219 28.253906 285.625 28.042969 C 287.261719 27.492188 287.261719 27.492188 288 26.667969 Z M 288 26.667969 "/>
</g>
</svg>
