<?xml version="1.0" encoding="UTF-8"?>
<svg version="1.1" xmlns="http://www.w3.org/2000/svg" width="215" height="28">
<path d="M0 0 C5.94 0 11.88 0 18 0 C18 6.54742943 17.74948837 7.00747029 13.5 11.375 C12.6646875 12.24898437 11.829375 13.12296875 10.96875 14.0234375 C10.3190625 14.67570312 9.669375 15.32796875 9 16 C12.3 16.33 15.6 16.66 19 17 C19 18.65 19 20.3 19 22 C14.70838953 22.05783842 10.41687855 22.0935412 6.125 22.125 C4.90167969 22.14175781 3.67835938 22.15851562 2.41796875 22.17578125 C0.66806641 22.18544922 0.66806641 22.18544922 -1.1171875 22.1953125 C-2.19597168 22.20578613 -3.27475586 22.21625977 -4.38623047 22.22705078 C-7 22 -7 22 -9 20 C-9.1953125 17.6171875 -9.1953125 17.6171875 -9.125 14.875 C-9.10695312 13.96492187 -9.08890625 13.05484375 -9.0703125 12.1171875 C-9.04710937 11.41851562 -9.02390625 10.71984375 -9 10 C-9.99 10.99 -10.98 11.98 -12 13 C-11.67 13.33 -11.34 13.66 -11 14 C-11.3125 17.5 -11.3125 17.5 -12 21 C-14.3396669 22.16983345 -15.83391527 22.1661241 -18.4375 22.1875 C-19.61119141 22.20876953 -19.61119141 22.20876953 -20.80859375 22.23046875 C-23 22 -23 22 -26 20 C-26 18.68 -26 17.36 -26 16 C-25.34 15.67 -24.68 15.34 -24 15 C-24.66 14.34 -25.32 13.68 -26 13 C-26.4375 10.5625 -26.4375 10.5625 -26 8 C-23.9375 6.125 -23.9375 6.125 -21 5 C-17.375 5.3125 -17.375 5.3125 -14 6 C-13.01 6 -12.02 6 -11 6 C-10.34 6 -9.68 6 -9 6 C-9 4.35 -9 2.7 -9 1 C-7.02 1 -5.04 1 -3 1 C-3 2.65 -3 4.3 -3 6 C-2.01 6 -1.02 6 0 6 C0 7.32 0 8.64 0 10 C-0.99 10 -1.98 10 -3 10 C-3 12.31 -3 14.62 -3 17 C2.21202675 14.47295673 5.3880132 10.38226641 9 6 C6.03 5.67 3.06 5.34 0 5 C0 3.35 0 1.7 0 0 Z M-21 16 C-20.67 16.66 -20.34 17.32 -20 18 C-19.01 18 -18.02 18 -17 18 C-17 17.34 -17 16.68 -17 16 C-18.32 16 -19.64 16 -21 16 Z " fill="#131313" transform="translate(142,2)"/>
<path d="M0 0 C3.23461592 2.04638967 4.59312968 3.47559254 5.5859375 7.1953125 C6.24347009 11.62269859 6.09314495 14.0230246 4 18 C4.39938767 20.09821215 4.39938767 20.09821215 5 22 C4.67 22.66 4.34 23.32 4 24 C1.66666667 23.66666667 -0.66666667 23.33333333 -3 23 C-4.216875 22.855625 -5.43375 22.71125 -6.6875 22.5625 C-11.97311272 21.66494312 -11.97311272 21.66494312 -14 20 C-16.39370927 16.00729294 -17.41429815 12.35599255 -16.5 7.75 C-15.62263606 5.09701856 -14.79052347 3.73815434 -13 1.5 C-8.63273171 -0.68363414 -4.78497241 -0.87999493 0 0 Z M-8 5 C-10.31332486 8.46998729 -10.33957563 9.92509248 -10 14 C-9.01 15.485 -9.01 15.485 -8 17 C-7.34 17 -6.68 17 -6 17 C-5.34 16.01 -4.68 15.02 -4 14 C-3.01 14 -2.02 14 -1 14 C-0.83322718 10.58343976 -0.83322718 10.58343976 -1 7 C-2.82915641 4.76154985 -2.82915641 4.76154985 -5.5 4.6875 C-6.325 4.790625 -7.15 4.89375 -8 5 Z " fill="#131313" transform="translate(75,2)"/>
<path d="M0 0 C5.61 0 11.22 0 17 0 C17 1.65 17 3.3 17 5 C13.37 5 9.74 5 6 5 C6 5.99 6 6.98 6 8 C9.3 8 12.6 8 16 8 C16 9.65 16 11.3 16 13 C12.7 13 9.4 13 6 13 C6 14.32 6 15.64 6 17 C9.96 17 13.92 17 18 17 C17.67 18.65 17.34 20.3 17 22 C11.39 22 5.78 22 0 22 C0 14.74 0 7.48 0 0 Z " fill="#141414" transform="translate(5,2)"/>
<path d="M0 0 C1.98 0 3.96 0 6 0 C6 7.26 6 14.52 6 22 C-3.765625 22.48828125 -3.765625 22.48828125 -7 22 C-9.99066822 19.11701541 -10.89946094 17.62557635 -11.5625 13.5 C-11 10 -11 10 -8.875 7 C-6 5 -6 5 -2.6875 5.1875 C-1.800625 5.455625 -0.91375 5.72375 0 6 C0 4.02 0 2.04 0 0 Z M-4 10 C-5.35618499 11.12534105 -5.35618499 11.12534105 -5.0625 14.0625 C-5.041875 15.031875 -5.02125 16.00125 -5 17 C-4.01 17.33 -3.02 17.66 -2 18 C-1.34 17.67 -0.68 17.34 0 17 C0 15.02 0 13.04 0 11 C-1.94603274 10.40929986 -1.94603274 10.40929986 -4 10 Z " fill="#141314" transform="translate(34,2)"/>
<path d="M0 0 C2.65858359 1.68376961 2.94962718 2.82175771 3.8125 5.875 C4.02078429 9.34640479 3.77227689 11.01935251 2 14 C-0.1875 15.9375 -0.1875 15.9375 -3 17 C-6.73093321 16.42106209 -9.11605485 15.79840207 -11.9375 13.25 C-13.36930806 10.21793587 -13.47450152 8.32151063 -13 5 C-9.06764917 -0.89852625 -6.88281267 -1.44901319 0 0 Z M-7 10 C-6.67 10.66 -6.34 11.32 -6 12 C-4.68 11.67 -3.36 11.34 -2 11 C-2 10.67 -2 10.34 -2 10 C-3.65 10 -5.3 10 -7 10 Z " fill="#131213" transform="translate(209,8)"/>
<path d="M0 0 C2.2407573 1.80706234 2.86432007 3.06935032 3.27734375 5.90234375 C3.42514087 9.07702593 3.18233596 11.51377078 2.0625 14.5 C-0.86198027 16.62689474 -3.28437271 16.56009784 -6.8359375 16.375 C-9 16 -9 16 -11.5625 14.5 C-13.59373506 10.96741729 -13.686998 7.98295269 -13 4 C-9.94476151 -1.67401434 -5.84796656 -1.35756367 0 0 Z M-7 4 C-3 5 -3 5 -3 5 Z M-7 10 C-6.67 10.66 -6.34 11.32 -6 12 C-4.68 11.34 -3.36 10.68 -2 10 C-3.65 10 -5.3 10 -7 10 Z " fill="#131313" transform="translate(112,8)"/>
<path d="M0 0 C2 2 2 2 2.1953125 5.2578125 C2.17210937 6.53398437 2.14890625 7.81015625 2.125 9.125 C2.10695312 10.40632813 2.08890625 11.68765625 2.0703125 13.0078125 C2.04710937 13.99523438 2.02390625 14.98265625 2 16 C0.02 16 -1.96 16 -4 16 C-4 12.04 -4 8.08 -4 4 C-4.99 4.33 -5.98 4.66 -7 5 C-7.33 8.63 -7.66 12.26 -8 16 C-9.98 16 -11.96 16 -14 16 C-14 10.72 -14 5.44 -14 0 C-9.03908866 -0.76979659 -4.93691501 -1.29300155 0 0 Z " fill="#131313" transform="translate(193,8)"/>
<path d="M0 0 C1.98 0 3.96 0 6 0 C6.33 3.63 6.66 7.26 7 11 C7.99 11 8.98 11 10 11 C10 7.37 10 3.74 10 0 C11.98 0 13.96 0 16 0 C16 5.28 16 10.56 16 16 C13.73125 16.061875 11.4625 16.12375 9.125 16.1875 C7.21074219 16.23970703 7.21074219 16.23970703 5.2578125 16.29296875 C4.18273437 16.19628906 3.10765625 16.09960938 2 16 C-0.42130331 12.36804504 -0.21022785 10.61650652 -0.125 6.3125 C-0.09792969 4.54326172 -0.09792969 4.54326172 -0.0703125 2.73828125 C-0.04710938 1.83464844 -0.02390625 0.93101563 0 0 Z " fill="#131313" transform="translate(82,8)"/>
<path d="M0 0 C2.31495619 1.80855953 2.84331938 3.0341334 3.30859375 5.90234375 C3.52158536 9.3682982 3.31232038 11.45683412 1.5625 14.5 C-2.24956737 16.73145407 -5.69726459 16.90002172 -10 16 C-13.35352755 13.30081929 -13.90377072 11.68563364 -14.5 7.4375 C-13.9257958 3.48984615 -13.11700276 2.38359035 -10 0 C-6.73414808 -1.63292596 -3.41712958 -0.88048738 0 0 Z M-7 4 C-8.35618499 5.12534105 -8.35618499 5.12534105 -8.0625 8.0625 C-8.041875 9.031875 -8.02125 10.00125 -8 11 C-6.05396726 11.59070014 -6.05396726 11.59070014 -4 12 C-2.64381501 10.87465895 -2.64381501 10.87465895 -2.9375 7.9375 C-2.958125 6.968125 -2.97875 5.99875 -3 5 C-4.94603274 4.40929986 -4.94603274 4.40929986 -7 4 Z " fill="#131313" transform="translate(175,8)"/>
<path d="M0 0 C1.65 0 3.3 0 5 0 C5.33 3.3 5.66 6.6 6 10 C6.99 10 7.98 10 9 10 C9.33 6.7 9.66 3.4 10 0 C11.65 0 13.3 0 15 0 C15 5.28 15 10.56 15 16 C5.0390625 16.1953125 5.0390625 16.1953125 2 16 C0 14 0 14 -0.1953125 10.7421875 C-0.17210937 9.46601563 -0.14890625 8.18984375 -0.125 6.875 C-0.10695312 5.59367188 -0.08890625 4.31234375 -0.0703125 2.9921875 C-0.04710937 2.00476563 -0.02390625 1.01734375 0 0 Z " fill="#141414" transform="translate(42,8)"/>
</svg>
